<svg enable-background="new 0 0 1754 180" viewBox="0 0 1754 180" xmlns="http://www.w3.org/2000/svg"><g fill="#c1c7d0"><path d="m89.6 98.3c0 1.3-1.1 2.4-2.4 2.4h-16.5c-1.3 0-2.4-1.1-2.3-2.4v-16.6c0-1.3 1.1-2.3 2.3-2.3h16.5c1.3 0 2.4 1.1 2.4 2.3zm14.2 12.4c0 2.3-1.9 4.1-4.1 4.1h-41.4c-2.3 0-4.1-1.9-4.1-4.1v-41.4c0-2.3 1.9-4.1 4.1-4.1h41.4c2.3 0 4.1 1.9 4.1 4.1zm1.2-59.7h-52c-7.2 0-13 5.8-13 13v52c0 7.2 5.8 13 13 13h52c7.2 0 13-5.8 13-13v-52c0-7.2-5.8-13-13-13"/><path d="m154.1 115.6c-4.6 0-8.9-1.7-12.2-4.9-2.7-2.7-4.3-6.4-4.3-10.2h4.7c0 2.6 1.1 5.1 3 6.9 2.4 2.3 5.6 3.6 8.9 3.6h.1c6.5 0 11.8-4.6 11.8-10.2 0-4.2-2.3-7.6-13.7-10.2-4.6-1.1-7.7-2.5-9.8-4.5s-3.3-5-3.3-8.7c0-7.3 6.6-13.3 14.7-13.3 3.8 0 7.4 1.3 10.3 3.8 2.8 2.4 4.4 5.8 4.4 9.5h-4.7c0-4.7-4.5-8.6-10-8.6s-10 4-10 8.6c0 4.3 1.5 6.8 9.5 8.6 8.5 2 17.3 5.3 17.3 14.7 0 4.1-1.8 7.9-4.9 10.6-3.3 2.8-7.5 4.4-11.8 4.3z"/><path d="m195.3 82.4c-8.4 0-14.5 6.3-14.5 14.6-.2 7.7 5.9 14.2 13.6 14.4h.8c8 0 14.5-6.5 14.5-14.5s-6.4-14.5-14.4-14.5m14 46.5v-20.5h-.1c-3.1 4.5-8.3 7.2-13.8 7-10.6 0-19-8-19-18.6s8.6-18.5 19-18.5c5.5-.2 10.7 2.5 13.8 7.1h.1v-6.2h4.5v49.7z"/><path d="m278.8 82.4c-8.4 0-14.5 6.3-14.5 14.6-.2 7.7 5.9 14.2 13.6 14.4h.8c8 0 14.5-6.5 14.5-14.5s-6.4-14.5-14.4-14.5m13.9 32.2v-6.2h-.1c-3.1 4.5-8.3 7.1-13.8 7-10.6 0-19-8-19-18.6s8.6-18.5 19-18.5c5.6 0 10.8 2.3 13.8 7.1h.1v-6.1h4.5v35.4z"/><path d="m310.8 93.9v20.7h-4.5v-35.4h4.5v5.1h.1c2-4.5 5.4-5.7 10-6v4.8c-6.2.6-10.1 4.5-10.1 10.8"/><path d="m341.1 82.4c-7 0-12.8 5.2-13.8 12.1h27.7c-1-6.9-6.9-12.1-13.9-12.1m18.5 16.2h-32.2c.3 7 6.8 12.8 13.7 12.8 5.4 0 10.7-3.1 12.7-8.3h4.8c-3.5 9.6-14 14.6-23.6 11.1s-14.6-14-11.1-23.6c2.6-7.3 9.5-12.2 17.3-12.2 10.4 0 18.6 8.7 18.6 19-.2.4-.2.8-.2 1.2"/><path d="m248.9 114.7v-5.5h-.1c-2.1 4.4-6.7 6.4-11.4 6.4s-9.3-1.6-12.2-5.3c-2.5-3.2-3.1-7.5-3.1-11.4v-19.8h4.6v19.6c0 7.3 2.7 12.7 10.8 12.7 2.8.1 5.5-.9 7.5-2.9 3.1-3 3.7-6.5 3.7-10.7v-18.7h4.6v35.5z"/><path d="m1240.5 130.7v7.4l.5.1c1.7.3 3.4.5 5.2.7 1.5.1 3 .2 4.5.1 1.4-.1 2.9-.4 4.3-.8 1.6-.5 3.1-1.3 4.4-2.4 1.2-1 2-2.3 2.6-3.7.9-2.4.9-5 0-7.4-.5-1.2-1.3-2.3-2.3-3.2s-2.1-1.6-3.4-2l-5.6-2.1c-.7-.3-1.2-.8-1.5-1.4-.2-.5-.2-1.2.1-1.7.1-.2.2-.4.4-.5.2-.2.4-.3.6-.4l.2-.2c.6-.3 1.3-.5 2-.6 1.2-.2 2.4-.2 3.6 0 1.4.2 2.8.4 4.1.7l.3.1v-6.8l-.5-.1c-1.4-.3-2.8-.6-4.2-.8-1.8-.2-3.7-.2-5.5 0-2.3.2-4.5 1.1-6.4 2.6-1.3 1-2.3 2.3-2.8 3.8-.8 2.3-.8 4.7 0 7 .4 1.1 1.1 2.2 2 3 .8.7 1.6 1.3 2.5 1.8 1.2.7 2.5 1.2 3.8 1.5l1.3.4.7.2.2.1c.6.2 1.2.6 1.8 1.1.4.3.6.7.8 1.2.1.4.1.8 0 1.2-.2.7-.7 1.2-1.3 1.5-.7.3-1.4.6-2.1.7-1.1.2-2.2.2-3.3.2-1.4-.1-2.9-.3-4.3-.6-.8-.2-1.5-.3-2.2-.5l-.3-.1"/><path d="m1210.1 137.8v-8.6l-.2.1c-1.9.9-4.1 1.5-6.2 1.6-2.2.2-4.5-.5-6.2-1.8-1.3-1-2.2-2.3-2.7-3.9-.5-1.7-.6-3.5-.2-5.2s1.4-3.3 2.8-4.4c1.2-1 2.7-1.7 4.3-1.9 2.8-.3 5.7.2 8.2 1.5l.2.1v-8.7l-.4-.1c-2.5-.8-5.2-1.1-7.8-1-2.4.1-4.8.6-7 1.6s-4.2 2.5-5.7 4.4c-4.8 6.1-5 14.7-.3 21 2.3 2.9 5.5 5 9.1 5.9 3.8.9 7.8.8 11.5-.4z"/><path d="m1229.5 138.4v-32.3h-8.1v32.3z"/><path d="m1168.8 80.2c0 2.2 1.8 4 4 4s4-1.8 4-4v-8.9c0-2.2-1.8-4-4-4s-4 1.8-4 4z"/><path d="m1191.1 80.2c0 2.2 1.8 4 4 4s4-1.8 4-4v-20c0-2.2-1.8-4-4-4s-4 1.8-4 4z"/><path d="m1213.2 88.2c0 2.2 1.8 4 4 4s4-1.8 4-4v-43.3c0-2.2-1.8-4-4-4s-4 1.8-4 4z"/><path d="m1235.5 80.2c.1 2.1 1.9 3.7 4 3.7s3.9-1.6 4-3.7v-20c0-2.2-1.8-4-4-4s-4 1.8-4 4z"/><path d="m1257.7 80.2c.1 1 .5 2 1.3 2.7 1.6 1.5 4.1 1.5 5.7-.1.7-.7 1.1-1.6 1.1-2.6v-8.9c0-1-.5-2-1.2-2.8-1.6-1.6-4.1-1.5-5.7 0-.7.7-1.1 1.7-1.2 2.7z"/><path d="m1280 80.2c.1 1 .5 2 1.3 2.7 1.5 1.5 4 1.5 5.5 0 .7-.7 1.2-1.6 1.3-2.7v-20c0-2.2-1.8-4-4-4s-4 1.8-4 4z"/><path d="m1302.1 88.2c.1 1 .5 2 1.3 2.7s1.7 1.1 2.8 1.1c2.1 0 3.9-1.6 4-3.7v-43.4c-.1-2.2-1.9-4-4.1-3.9-1 0-2 .4-2.7 1.2-.7.7-1.2 1.7-1.2 2.8z"/><path d="m1324.4 80.2c.1 2.1 1.9 3.7 4 3.7s3.9-1.6 4-3.7v-20c0-1-.5-2-1.2-2.8-1.6-1.6-4.1-1.5-5.7 0-.7.7-1.1 1.7-1.2 2.7z"/><path d="m1346.6 80.2c.1 2.1 1.9 3.7 4 3.7s3.9-1.6 4-3.7v-8.9c-.1-2.2-1.9-4-4.1-3.9-1 0-2 .4-2.7 1.2-.7.7-1.2 1.7-1.2 2.8z"/><path d="m1295.2 137.8v-8.6l-.2.1c-1.9.9-4 1.5-6.2 1.6-2.2.2-4.5-.5-6.2-1.8-1.3-1-2.2-2.3-2.7-3.9-.6-1.7-.6-3.5-.2-5.2s1.4-3.3 2.8-4.4c1.2-1 2.7-1.7 4.3-1.9 2.8-.3 5.7.2 8.2 1.5l.2.1v-8.7l-.4-.1c-2.5-.8-5.2-1.1-7.8-1-2.4.1-4.8.6-7 1.6s-4.2 2.5-5.7 4.4c-4.8 6.1-5 14.7-.3 21 2.3 2.9 5.5 5 9.1 5.9 3.8.9 7.8.8 11.5-.4z"/><path d="m1303.8 122.3c.2 9.4 7.9 16.9 17.3 16.7 1.1 0 2.3-.2 3.4-.4 9-1.7 14.9-10.4 13.2-19.4-.9-4.7-3.7-8.7-7.8-11.1-8-5-18.6-2.5-23.5 5.5-1.7 2.6-2.6 5.6-2.6 8.7m11.8-6.7c3.7-2.9 9-2.3 11.9 1.3 2.9 3.7 2.3 9-1.3 11.9-3.7 2.9-9 2.3-11.9-1.3-1.4-1.8-2.1-4-1.8-6.2.2-2.2 1.3-4.3 3.1-5.7"/><g clip-rule="evenodd" fill-rule="evenodd"><path d="m481.3 74.6c8.2 0 13.8 5 13.8 12.6h-28.4c0-8 7.4-12.6 14.6-12.6m.3-6.6c-13.7 0-25.2 5.8-25.2 23.4 0 13.9 7.7 22.7 25.5 22.7 21 0 22.3-13.8 22.3-13.8h-10.2s-2.2 7.4-12.8 7.4c-8.6 0-14.9-5.8-14.9-14h38.9v-5.2c.2-8-5-20.5-23.6-20.5"/><path d="m530.5 74.9c9.3 0 15.2 6.9 15.2 16.2 0 10-6.8 16.5-15.2 16.5-10 0-15.3-7.8-15.3-16.4.1-8 4.9-16.3 15.3-16.3zm-25.1-23.9v54.3c0 3.1-.2 7.4-.2 7.4h9.7s.3-3.1.3-6c0 0 4.8 7.5 17.8 7.5 13.7 0 23-9.5 23-23.2 0-12.7-8.6-22.9-23-22.9-13.5 0-17.8 7.3-17.8 7.3v-24.4z"/><path d="m591.5 92.1v2.9c0 3.7-2.3 12.9-15.7 12.9-7.4 0-10.5-3.7-10.5-7.9 0-7.8 10.6-7.8 26.2-7.9m-11.3-24.1c-20.7 0-22 11.3-22 13.1h10.3s.5-6.6 11-6.6c6.8 0 12 3.1 12 9.1v2.1h-12c-16 0-24.5 4.7-24.5 14.2 0 9.3 7.8 14.4 18.4 14.4 14.4 0 19-8 19-8 0 3.2.2 6.3.2 6.3h9.1s-.3-3.9-.3-6.3v-21.3c0-14-11.3-17-21.2-17"/><path d="m595.9 69.8h11.6l16.6 33.3 16.5-33.3h10.5l-30.1 59.2h-11l8.7-16.5z"/></g><path d="m1657.9 84.1c-2.7 2.2-4.7 5.2-5.4 8.7 4.8-.2 7.4-.9 9.9-2.8 1.8-1.2 3-3.2 3.2-5.3 0-.9-.6-2.3-3.1-2.3-1.6 0-3.3.6-4.6 1.7m-101.5-17.3c-1.5 5.6-3.7 13.4-5.7 20.9 8.4 0 13.6-1.4 16.2-9.7 2.1-6.7 1.3-11.2-8.7-11.2zm61.8 11.2h26.1c-3 10-17.2 18-21.1 25.5h16.5l-1.8 6.5h-26.8c0-10.1 16.9-21.7 20.2-26.7h-14.6zm81.8-.6c5.8 0 6.7 3.5 6.7 6.1.2 2.7-1.9 5.1-4.7 5.3h-.1c-1.2.1-2.3-.3-3.1-1.1-.7-.7-1.1-1.6-1.1-2.6-.1-.9-.4-1.7-1.4-1.9-1.5-.2-2.9.4-3.9 1.4-1.8 1.7-3.2 3.8-4.2 6.1-.6 1.3-1.1 2.7-1.6 4.1l-4.2 15h-10.5l8.6-32h10.2l-1.8 6.4c2.4-2.8 6.9-7 11-7m-58.4 21.4c0-11.6 10.4-21.4 21.6-21.4 5.5 0 10.3 2.6 10.3 6.9s-3.6 9.2-9.1 11c-4.1 1.3-8.3 1.9-12.6 1.8-.1.8-.1 1.5-.1 2.3.1 3.3 2.9 5.8 6.2 5.7h.1c4.9 0 9.6-4.5 10.1-5l1.8 4.9c-1.5 1.5-3.1 2.8-5 3.8-3.1 1.6-6.5 2.4-10 2.3-7.9.1-13.3-4.9-13.3-12.3m-94.4-36.5h12.2c18.8 0 20.1 9.6 18.6 16.4-2 8.4-7.1 14.4-28.7 14.4-2.1 7.8-4 14.6-4.6 17.1h-10.5c1.9-7.2 13-47.9 13-47.9m92-29.1c-11.9 0-23.8 1.3-35.4 3.7-49.7 10.3-86.4 39.5-86.4 67.1 0 2.1.2 4.2.6 6.3 3.7 17.2 21.6 29.4 46.7 34.4 5.3-20.3 17.4-67 17.4-67 2.4-9.2 3.7-12.8 6.1-16.8 3.1-5.2 8-9.5 14.9-10.1 3.8-.3 9.3.1 12.5 2.3 2.2 1.3 3.5 3.7 3.3 6.3-.2 4.1-2.7 6.8-6.7 6.8-2.7.2-5.1-1.8-5.4-4.5 0-.2 0-.3 0-.4 0-2.7 1.6-3.1 1.6-5.1 0-1-.9-2.6-3.5-2.2-3.2.5-5.8 3-7.5 7.3-.6 1.5-1.1 3.1-1.5 4.7l-3.1 12.2h20.7c-2.7 9.8-7.3 27.2-8.6 31.9h-10.5l7.1-26.7h-10.2l-16.4 62.8c5.3.6 10.6.9 15.9.9h.6c11.6-.1 23.2-1.3 34.6-3.7 49.8-10.4 87.9-39.8 88-67.5 0-2.1-.2-4.1-.6-6.1-4.7-22.7-35.6-36.6-74.2-36.6z"/><path d="m881.7 56.2-28.4 67.7h-18.5l-14-54c-.8-3.3-1.6-4.6-4.2-6-4.2-2.3-11.2-4.4-17.3-5.8l.4-2h29.8c4 0 7.5 2.9 8.1 6.9l7.4 39.2 18.2-46.1zm72.5 45.6c.1-17.8-24.7-18.8-24.5-26.8.1-2.4 2.4-5 7.4-5.7 5.9-.6 11.9.5 17.3 3l3.1-14.3c-5.2-2-10.8-3-16.4-3-17.3 0-29.5 9.2-29.6 22.4-.1 9.8 8.7 15.2 15.3 18.4 6.8 3.3 9.1 5.4 9.1 8.4 0 4.5-5.4 6.6-10.5 6.6-8.8.1-13.9-2.4-18-4.3l-3.2 14.8c4.1 1.9 11.7 3.5 19.5 3.6 18.4.1 30.4-9 30.5-23.1m45.7 22.1h16.2l-14.1-67.7h-15c-3.3 0-6.2 2-7.5 5l-26.2 62.7h18.4l3.7-10.1h22.5zm-19.5-24 9.2-25.4 5.3 25.5zm-73.7-43.7-14.5 67.7h-17.5l14.5-67.7z"/></g></svg>